<svg width="25" height="24" viewBox="0 0 25 24" fill="none" xmlns="http://www.w3.org/2000/svg">
<g clip-path="url(#clip0_755_5447)">
<path d="M12.666 0C6.03854 0 0.666016 5.37253 0.666016 12C0.666016 18.6274 6.03854 24 12.666 24C19.2934 24 24.666 18.6274 24.666 12C24.666 5.37253 19.2933 0 12.666 0ZM9.46438 17.8014H6.82966V9.2894H9.46438V17.8014ZM8.13446 8.17468C7.27399 8.17468 6.57643 7.47143 6.57643 6.60407C6.57643 5.73661 7.27409 5.03341 8.13446 5.03341C8.99483 5.03341 9.6924 5.73661 9.6924 6.60407C9.69245 7.47148 8.99488 8.17468 8.13446 8.17468ZM19.338 17.8014H16.716V13.3333C16.716 12.1078 16.2505 11.4238 15.2815 11.4238C14.2269 11.4238 13.676 12.1362 13.676 13.3333V17.8014H11.149V9.2894H13.676V10.4358C13.676 10.4358 14.4361 9.02975 16.241 9.02975C18.0459 9.02975 19.338 10.1318 19.338 12.4117L19.338 17.8014Z" fill="#070218"/>
</g>
<defs>
<clipPath id="clip0_755_5447">
<rect width="24" height="24" fill="white" transform="translate(0.666016)"/>
</clipPath>
</defs>
</svg>
