<svg width="48" height="48" viewBox="0 0 48 48" fill="none" xmlns="http://www.w3.org/2000/svg">
<rect width="48" height="48" rx="10.6667" fill="#F3F6F9"/>
<g clip-path="url(#clip0_4313_11017)">
<path d="M27.0948 24.4809L29.6579 27.4107L33.1045 29.5892L33.7055 24.5005L33.1045 19.5004L29.5918 21.4355L27.0948 24.4809Z" fill="#188038"/>
<path d="M12.2208 29.1385V33.4955C12.2208 34.4916 13.0276 35.2984 14.0237 35.2984H18.3807L19.2822 32.0051L18.3807 29.1385L15.3909 28.2371L12.2208 29.1385Z" fill="#1967D2"/>
<path d="M18.3807 13.6635L12.2208 19.8234L15.3909 20.7249L18.3807 19.8234L19.2672 16.9944L18.3807 13.6635Z" fill="#EA4335"/>
<path d="M12.2208 19.8234H18.3807V29.1384H12.2208V19.8234Z" fill="#4285F4"/>
<path d="M37.0393 16.2717L33.1045 19.5004V29.5892L37.0559 32.9501C37.6478 33.4129 38.5132 32.9907 38.5132 32.2395V16.9689C38.5132 16.2071 37.6283 15.7895 37.0393 16.2717Z" fill="#34A853"/>
<path d="M27.0948 24.481V29.1385H18.3808V35.2984H31.3016C32.2977 35.2984 33.1045 34.4916 33.1045 33.4955V29.5892L27.0948 24.481Z" fill="#34A853"/>
<path d="M31.3016 13.6635H18.3808V19.8234H27.0948V24.4809L33.1045 19.5004V15.4664C33.1045 14.4703 32.2977 13.6635 31.3016 13.6635V13.6635Z" fill="#FBBC04"/>
</g>
<defs>
<clipPath id="clip0_4313_11017">
<rect width="31.7311" height="31.7311" fill="white" transform="translate(9.5766 8.61542)"/>
</clipPath>
</defs>
</svg>
