<svg width="48" height="48" viewBox="0 0 48 48" fill="none" xmlns="http://www.w3.org/2000/svg">
<rect width="48" height="48" rx="10.6667" fill="#0F172A"/>
<g clip-path="url(#clip0_4313_11011)">
<path d="M24 25C24 24.121 24.2607 23.2617 24.749 22.5308C25.2374 21.7999 25.9315 21.2302 26.7436 20.8939C27.5557 20.5575 28.4494 20.4695 29.3115 20.6409C30.1737 20.8124 30.9656 21.2357 31.5871 21.8573C32.2087 22.4789 32.632 23.2708 32.8035 24.1329C32.975 24.9951 32.887 25.8887 32.5506 26.7008C32.2142 27.5129 31.6445 28.207 30.9136 28.6954C30.1828 29.1838 29.3235 29.4444 28.4444 29.4444C27.2657 29.4444 26.1352 28.9762 25.3017 28.1427C24.4683 27.3092 24 26.1787 24 25Z" fill="#1ABCFE"/>
<path d="M15.1111 33.8889C15.1111 32.7102 15.5794 31.5797 16.4129 30.7462C17.2464 29.9127 18.3768 29.4445 19.5556 29.4445H24V33.8889C24 35.0676 23.5317 36.1981 22.6983 37.0316C21.8648 37.8651 20.7343 38.3333 19.5556 38.3333C18.3768 38.3333 17.2464 37.8651 16.4129 37.0316C15.5794 36.1981 15.1111 35.0676 15.1111 33.8889Z" fill="#0ACF83"/>
<path d="M24 11.6667V20.5556H28.4444C29.6232 20.5556 30.7536 20.0873 31.5871 19.2538C32.4206 18.4203 32.8889 17.2899 32.8889 16.1111C32.8889 14.9324 32.4206 13.8019 31.5871 12.9684C30.7536 12.1349 29.6232 11.6667 28.4444 11.6667H24Z" fill="#FF7262"/>
<path d="M15.1111 16.1111C15.1111 17.2899 15.5794 18.4203 16.4129 19.2538C17.2464 20.0873 18.3768 20.5556 19.5556 20.5556H24V11.6667H19.5556C18.3768 11.6667 17.2464 12.1349 16.4129 12.9684C15.5794 13.8019 15.1111 14.9324 15.1111 16.1111Z" fill="#F24E1E"/>
<path d="M15.1111 25C15.1111 26.1787 15.5794 27.3092 16.4129 28.1427C17.2464 28.9762 18.3768 29.4444 19.5556 29.4444H24V20.5555H19.5556C18.3768 20.5555 17.2464 21.0238 16.4129 21.8573C15.5794 22.6908 15.1111 23.8212 15.1111 25Z" fill="#A259FF"/>
</g>
<defs>
<clipPath id="clip0_4313_11011">
<rect width="17.7778" height="26.6667" fill="white" transform="translate(15.1111 11.6667)"/>
</clipPath>
</defs>
</svg>
