<svg width="281" height="353" viewBox="0 0 281 353" fill="none" xmlns="http://www.w3.org/2000/svg">
<g clip-path="url(#clip0_4303_10867)">
<ellipse cx="138.51" cy="340.635" rx="138.509" ry="150.365" fill="#F04BCC"/>
<ellipse cx="138.124" cy="164.902" rx="122.006" ry="110.199" transform="rotate(-6.72753 138.124 164.902)" fill="#F04BCC"/>
<circle cx="120.55" cy="124.998" r="7.08422" transform="rotate(-6.72753 120.55 124.998)" fill="black"/>
<circle cx="145.565" cy="122.047" r="7.08422" transform="rotate(-6.72753 145.565 122.047)" fill="black"/>
<path d="M115.738 146.347C115.871 147.476 115.781 148.621 115.472 149.715C115.163 150.809 114.641 151.832 113.937 152.724C113.233 153.617 112.359 154.362 111.367 154.918C110.375 155.473 109.283 155.827 108.154 155.96C107.024 156.093 105.88 156.003 104.786 155.694C103.692 155.385 102.669 154.863 101.776 154.159C100.884 153.455 100.138 152.581 99.5832 151.589C99.028 150.597 98.6737 149.505 98.5405 148.376L107.139 147.361L115.738 146.347Z" fill="white"/>
<path d="M143.88 146.176C144.013 147.306 143.923 148.45 143.614 149.544C143.305 150.639 142.783 151.661 142.079 152.554C141.374 153.447 140.501 154.192 139.509 154.747C138.517 155.302 137.425 155.656 136.295 155.79C135.166 155.923 134.022 155.832 132.928 155.523C131.833 155.214 130.811 154.693 129.918 153.988C129.025 153.284 128.28 152.411 127.725 151.419C127.17 150.426 126.815 149.334 126.682 148.205L135.281 147.191L143.88 146.176Z" fill="white"/>
<path d="M171.982 138.492C172.268 139.592 172.335 140.738 172.178 141.864C172.021 142.991 171.644 144.075 171.069 145.055C170.493 146.036 169.73 146.894 168.822 147.579C167.915 148.265 166.882 148.765 165.782 149.051C164.681 149.337 163.535 149.404 162.409 149.247C161.283 149.091 160.198 148.714 159.218 148.138C158.237 147.562 157.38 146.799 156.694 145.892C156.009 144.985 155.509 143.952 155.222 142.851L163.602 140.671L171.982 138.492Z" fill="white"/>
<path d="M179.915 136.195C179.915 136.195 153.045 142.733 135.5 144.833C117.543 146.983 89.2361 146.891 89.2361 146.891" stroke="black" stroke-width="6.29709" stroke-linecap="round" stroke-linejoin="round"/>
<path d="M82.5705 138.989C87.9063 143.908 90.5762 153.104 90.2556 157.104" stroke="black" stroke-width="6.29709" stroke-linecap="round" stroke-linejoin="round"/>
<path d="M182.732 146.357C180.57 139.43 182.856 130.131 185.134 126.826" stroke="black" stroke-width="6.29709" stroke-linecap="round" stroke-linejoin="round"/>
<path d="M62.6928 245.955C-4.73243 211.902 -12.241 74.1521 124.254 55.6044C256.868 37.584 294.665 176.585 224.785 229.213" stroke="black" stroke-width="6.29709" stroke-linecap="round" stroke-linejoin="round"/>
<path d="M112.827 3.05834C96.7518 6.49351 100.949 56.7851 99.4176 58.5048L144.489 50.8798C139.293 33.7942 125.686 0.310196 112.827 3.05834Z" fill="white"/>
<path d="M99.4176 58.5048C100.949 56.7851 96.7518 6.49351 112.827 3.05834C125.686 0.310197 139.293 33.7942 144.489 50.8798" stroke="black" stroke-width="6.29709" stroke-linecap="round" stroke-linejoin="round"/>
<path d="M104.284 32.5678C111.448 30.9912 126.884 26.2439 131.319 19.8676" stroke="black" stroke-width="6.29709" stroke-linecap="round" stroke-linejoin="round"/>
<path d="M101.807 51.8825C111.358 49.7803 131.939 43.4505 137.854 34.9489" stroke="black" stroke-width="6.29709" stroke-linecap="round" stroke-linejoin="round"/>
<path d="M44.9794 223.547C35.6995 231.35 -8.67486 305.357 8.09665 353.359" stroke="black" stroke-width="6.29709" stroke-linecap="round" stroke-linejoin="round"/>
<path d="M230.743 225.121C240.023 232.924 286.272 286.272 280.778 348.731" stroke="black" stroke-width="6.29709" stroke-linecap="round" stroke-linejoin="round"/>
<path d="M176.907 253.108H153.11C153.771 244.514 149.083 227.692 139.565 230.072C130.046 232.451 127.992 243.853 126.34 249.141" stroke="black" stroke-width="6.29709" stroke-linecap="round" stroke-linejoin="round"/>
<path d="M132.289 256.081C122.704 253.107 104.279 249.82 100.561 258.064C93.9558 272.706 106.845 277.664 111.802 278.655" stroke="black" stroke-width="6.29709" stroke-linecap="round"/>
<path d="M100.561 275.912C95.9339 283.183 92.0339 298.716 113.45 302.682" stroke="black" stroke-width="6.29709" stroke-linecap="round"/>
<path d="M99.905 297.494C97.9219 315.341 103.536 329.453 157.077 326.479C210.618 323.504 237.389 305.657 240.363 276.904" stroke="black" stroke-width="6.29709" stroke-linecap="round"/>
<path d="M117.401 215.675L123.698 222.76" stroke="black" stroke-width="6.29709" stroke-linecap="round"/>
<path d="M164.567 215.182L158.327 222.317" stroke="black" stroke-width="6.29709" stroke-linecap="round"/>
<path d="M141.548 209.378L141.892 218.851" stroke="black" stroke-width="6.29709" stroke-linecap="round"/>
</g>
<defs>
<clipPath id="clip0_4303_10867">
<rect width="281" height="353" fill="white"/>
</clipPath>
</defs>
</svg>
