<svg width="107" height="204" viewBox="0 0 107 204" fill="none" xmlns="http://www.w3.org/2000/svg">
<path opacity="0.7" d="M101.896 127.285C103.466 126.487 103.504 124.056 101.957 123.215C99.1828 121.707 95.6578 119.549 93.4386 117.289C91.3621 115.175 89.3691 111.892 87.9453 109.252C87.1054 107.695 84.6571 107.734 83.8613 109.314C82.5352 111.947 80.6682 115.2 78.6592 117.289C76.4737 119.563 72.9662 121.66 70.1267 123.14C68.5157 123.979 68.5546 126.554 70.1872 127.351C73.0199 128.733 76.4976 130.706 78.6592 132.913C80.6787 134.976 82.4943 138.209 83.7943 140.897C84.5887 142.539 87.1821 142.581 88.0208 140.96C89.417 138.263 91.353 134.999 93.4386 132.913C95.6313 130.721 99.1265 128.693 101.896 127.285Z" fill="#FFC7F3"/>
<path d="M60.7647 33.6251C62.353 32.8648 62.3914 30.4642 60.8258 29.6581C56.4384 27.3993 49.6533 23.5413 45.6515 19.4659C41.871 15.616 38.2722 9.22749 36.1135 4.99767C35.3093 3.42185 32.8888 3.46194 32.132 5.06108C30.1273 9.29726 26.7704 15.6516 23.1034 19.4659C19.1222 23.6072 12.2651 27.3657 7.70104 29.5944C6.06873 30.3915 6.10837 32.929 7.76253 33.6797C12.3326 35.7537 19.1563 39.2712 23.1034 43.3024C26.8328 47.1113 30.1063 53.5359 32.0808 57.9364C32.8278 59.601 35.3797 59.6411 36.1747 57.9988C38.3034 53.602 41.8112 47.1427 45.6515 43.3024C49.6151 39.3389 56.3685 35.7296 60.7647 33.6251Z" fill="#FFC7F3"/>
<path opacity="0.5" d="M22.7219 191.715C24.2584 190.854 24.2972 188.392 22.782 187.495C21.2563 186.591 19.6289 185.487 18.5058 184.343C17.4771 183.296 16.4793 181.816 15.6467 180.404C14.7478 178.88 12.2684 178.92 11.4076 180.466C10.6306 181.861 9.6935 183.315 8.70453 184.343C7.62392 185.467 6.0559 186.527 4.5475 187.399C2.97525 188.309 3.01507 190.929 4.60795 191.802C6.09994 192.62 7.64201 193.62 8.70453 194.705C9.6724 195.693 10.5696 197.087 11.3182 198.457C12.1932 200.058 14.8315 200.099 15.744 198.519C16.5456 197.131 17.4995 195.711 18.5058 194.705C19.6096 193.601 21.211 192.56 22.7219 191.715Z" fill="#FFC7F3"/>
</svg>
