<svg width="106" height="202" viewBox="0 0 106 202" fill="none" xmlns="http://www.w3.org/2000/svg">
<path opacity="0.7" d="M4.24552 126.223C2.67606 125.424 2.63739 122.993 4.18448 122.152C6.94971 120.649 10.4589 118.499 12.6692 116.248C14.7373 114.142 16.7222 110.874 18.1419 108.243C18.982 106.686 21.4304 106.725 22.2266 108.305C23.5488 110.929 25.4084 114.167 27.4091 116.248C29.5857 118.512 33.0771 120.601 35.9069 122.077C37.5177 122.917 37.4788 125.492 35.8464 126.289C33.0234 127.667 29.5618 129.632 27.4091 131.831C25.3981 133.884 23.5899 137.102 22.2937 139.78C21.499 141.423 18.9053 141.464 18.0662 139.844C16.6742 137.156 14.7461 133.907 12.6692 131.831C10.4853 129.647 7.00593 127.627 4.24552 126.223Z" fill="#FFC7F3"/>
<path d="M45.2671 32.8132C43.6789 32.0527 43.6405 29.6518 45.206 28.8456C49.5821 26.592 56.3409 22.7474 60.3286 18.6864C64.0955 14.8502 67.6817 8.48692 69.8352 4.26833C70.6396 2.69259 73.0603 2.73213 73.8172 4.33118C75.8172 8.55603 79.1625 14.8855 82.8164 18.6864C86.7834 22.8128 93.6133 26.5582 98.1652 28.7817C99.7974 29.579 99.7583 32.1167 98.1043 32.8676C93.5465 34.9368 86.7495 38.4423 82.8164 42.4592C79.1006 46.2542 75.8385 52.6532 73.8686 57.0416C73.1214 58.7061 70.5694 58.7462 69.7741 57.1041C67.6506 52.7193 64.1551 46.2857 60.3286 42.4592C56.379 38.5097 49.6519 34.9128 45.2671 32.8132Z" fill="#FFC7F3"/>
<path opacity="0.5" d="M83.208 190.481C81.6718 189.62 81.633 187.157 83.148 186.26C84.6664 185.36 86.2844 184.261 87.4019 183.123C88.4252 182.081 89.4178 180.61 90.2469 179.205C91.1463 177.682 93.6259 177.722 94.4873 179.267C95.261 180.655 96.1933 182.1 97.177 183.123C98.2519 184.241 99.8104 185.295 101.311 186.164C102.883 187.075 102.843 189.695 101.251 190.569C99.7664 191.383 98.2338 192.378 97.177 193.457C96.2145 194.44 95.3221 195.825 94.5768 197.187C93.7011 198.788 91.0626 198.829 90.1494 197.249C89.3514 195.869 88.4027 194.458 87.4018 193.457C86.3037 192.359 84.7117 191.323 83.208 190.481Z" fill="#FFC7F3"/>
</svg>
